<?xml version="1.0" standalone="no"?>
<!DOCTYPE svg PUBLIC "-//W3C//DTD SVG 20010904//EN"
 "http://www.w3.org/TR/2001/REC-SVG-20010904/DTD/svg10.dtd">
<svg version="1.0" xmlns="http://www.w3.org/2000/svg"
 width="1066.000000pt" height="1066.000000pt" viewBox="0 0 1066.000000 1066.000000"
 preserveAspectRatio="xMidYMid meet">
<metadata>
Created by potrace 1.14, written by Peter Selinger 2001-2017
</metadata>
<g transform="translate(0.000000,1066.000000) scale(0.100000,-0.100000)"
fill="#000000" stroke="none">
<path d="M2043 9858 c3 -436 7 -813 10 -838 10 -77 19 -183 21 -222 0 -21 5
-38 9 -38 5 0 6 -3 4 -7 -3 -5 3 -55 14 -113 25 -144 27 -155 45 -235 9 -38
18 -79 20 -91 21 -108 143 -481 200 -609 10 -22 18 -42 19 -45 9 -32 124 -268
174 -358 105 -188 157 -271 282 -452 32 -47 171 -232 184 -246 5 -6 21 -25 35
-43 27 -35 40 -50 108 -130 72 -84 130 -148 212 -232 41 -43 82 -86 91 -96 38
-44 316 -303 409 -383 29 -25 65 -56 80 -70 15 -14 47 -41 70 -60 23 -19 52
-43 64 -54 11 -10 37 -30 56 -45 19 -14 46 -36 60 -49 14 -12 59 -48 100 -80
41 -31 89 -69 105 -84 17 -16 35 -28 42 -28 6 0 13 -4 15 -8 2 -5 28 -27 58
-50 30 -23 60 -46 65 -50 6 -4 69 -50 140 -102 72 -52 132 -98 133 -102 2 -5
8 -8 13 -8 11 0 92 -60 97 -72 2 -5 8 -8 13 -8 9 0 66 -37 79 -50 3 -3 40 -30
83 -60 42 -30 119 -85 170 -123 50 -37 103 -75 116 -85 13 -9 30 -23 37 -29 7
-7 17 -13 22 -13 6 0 12 -3 14 -7 2 -5 30 -28 63 -53 33 -25 65 -49 71 -55 6
-5 23 -19 38 -30 16 -11 33 -24 40 -30 9 -8 94 -76 174 -140 7 -5 23 -19 35
-30 12 -11 47 -40 77 -65 30 -25 64 -54 76 -65 12 -11 58 -54 104 -95 129
-117 335 -325 420 -426 66 -77 87 -103 110 -133 14 -18 30 -38 35 -44 55 -62
229 -319 276 -407 13 -25 27 -47 30 -50 9 -8 114 -229 152 -320 44 -104 107
-282 107 -301 0 -8 7 -33 15 -56 14 -41 23 -78 30 -120 2 -12 6 -27 10 -33 3
-6 8 -31 11 -55 l4 -45 -2051 0 -2051 0 6 23 c4 12 8 29 10 37 1 8 5 22 8 30
3 8 14 42 23 75 53 183 180 459 318 690 37 62 207 316 218 325 3 3 29 38 58
77 29 40 57 73 62 73 5 0 9 5 9 11 0 8 95 127 165 205 5 7 33 37 60 69 107
121 301 329 386 413 61 61 63 65 44 78 -11 7 -25 18 -32 24 -7 5 -15 10 -17
10 -5 0 -21 12 -60 45 -7 6 -19 15 -29 20 -24 14 -267 188 -281 200 -6 6 -33
26 -61 45 -27 19 -54 38 -60 43 -10 8 -167 121 -205 147 -74 51 -145 105 -148
112 -10 23 -43 0 -126 -86 -160 -164 -339 -361 -418 -458 -18 -23 -38 -46 -43
-52 -6 -6 -50 -60 -98 -121 -49 -60 -94 -117 -100 -125 -7 -8 -23 -31 -37 -50
-13 -19 -27 -37 -30 -40 -3 -3 -31 -41 -61 -85 -30 -44 -56 -82 -59 -85 -3 -3
-23 -32 -44 -65 -22 -33 -51 -78 -66 -100 -14 -22 -29 -47 -33 -55 -4 -8 -18
-33 -32 -55 -14 -22 -33 -56 -43 -75 -9 -19 -20 -37 -23 -40 -7 -6 -136 -260
-167 -330 -98 -220 -197 -513 -237 -700 -2 -8 -4 -15 -5 -15 -1 0 -3 -12 -5
-26 -2 -14 -8 -43 -13 -65 -6 -21 -13 -55 -16 -74 -3 -19 -8 -46 -10 -60 -3
-14 -7 -41 -10 -60 -3 -19 -8 -45 -10 -57 -2 -11 -7 -58 -11 -103 -4 -45 -9
-92 -12 -103 -4 -12 -8 -376 -10 -809 l-5 -788 3292 0 3291 0 -4 782 c-2 431
-7 815 -10 853 -13 142 -16 171 -21 200 -3 17 -8 55 -11 85 -5 47 -31 199 -50
295 -4 17 -8 39 -10 50 -1 11 -8 40 -15 65 -7 25 -14 53 -16 64 -9 50 -110
378 -125 406 -4 8 -18 44 -30 80 -12 36 -28 74 -35 85 -7 11 -13 22 -13 25 0
33 -238 499 -278 545 -5 6 -12 18 -15 27 -4 9 -19 36 -35 59 -15 23 -35 53
-43 65 -59 91 -237 333 -292 396 -13 15 -33 40 -45 55 -12 15 -34 42 -48 58
-15 17 -50 57 -78 90 -29 33 -144 152 -257 265 -193 193 -288 282 -455 425
-38 33 -75 65 -81 70 -6 6 -31 27 -54 46 -89 72 -165 134 -176 144 -7 5 -24
19 -40 30 -15 11 -32 25 -38 30 -20 18 -127 99 -411 313 -16 12 -38 25 -47 28
-10 4 -18 9 -18 13 0 4 -27 25 -60 47 -33 21 -60 42 -60 47 0 4 -4 7 -10 7 -5
0 -36 20 -67 44 -32 23 -89 65 -128 91 -91 64 -330 239 -368 270 -7 6 -47 37
-89 69 -43 32 -78 63 -78 69 0 6 -3 7 -6 4 -4 -4 -23 8 -43 26 -20 17 -52 43
-70 57 -19 14 -40 31 -47 38 -8 7 -42 36 -77 65 -62 51 -77 65 -186 162 -59
52 -381 374 -442 440 -97 109 -329 408 -359 465 -7 14 -16 27 -20 30 -4 3 -22
32 -41 65 -18 33 -37 62 -41 63 -4 2 -8 10 -8 18 0 8 -4 14 -10 14 -5 0 -10 5
-10 10 0 6 -18 43 -41 82 -22 40 -41 77 -42 83 -1 5 -5 12 -8 15 -5 4 -47 90
-54 110 -5 14 -28 67 -49 113 -13 29 -26 63 -30 77 -4 14 -11 34 -16 45 -21
45 -86 260 -79 260 1 0 -3 10 -9 22 -7 12 -14 35 -17 50 -5 32 -13 68 -15 68
-1 0 -3 10 -4 23 l-3 23 371 0 c204 0 380 0 391 0 11 0 121 0 245 0 124 0 232
0 240 0 8 0 116 0 240 0 124 0 232 0 240 0 8 0 116 0 240 0 124 0 232 0 240 0
8 0 152 0 320 0 168 0 312 0 320 0 8 0 152 0 320 0 168 0 312 0 320 0 8 0 146
-1 307 -1 l292 -1 -9 -22 c-11 -29 -24 -80 -22 -90 1 -4 -5 -21 -13 -37 -8
-16 -15 -40 -15 -54 0 -14 -4 -27 -9 -30 -5 -3 -12 -18 -15 -33 -6 -26 -36
-111 -56 -158 -59 -138 -80 -185 -122 -270 -28 -55 -73 -140 -101 -188 -29
-48 -56 -95 -62 -105 -16 -28 -125 -192 -135 -205 -6 -7 -28 -37 -49 -67 -22
-30 -44 -59 -48 -65 -5 -5 -35 -44 -68 -85 -60 -76 -81 -102 -189 -225 -68
-77 -364 -376 -438 -443 -27 -23 -48 -47 -48 -52 0 -5 12 -17 28 -27 15 -10
29 -20 32 -23 3 -3 57 -46 120 -95 63 -49 140 -109 170 -133 30 -23 60 -46 65
-50 55 -42 151 -118 155 -122 3 -3 23 -18 45 -35 22 -16 42 -32 45 -35 3 -3
21 -17 40 -30 19 -13 37 -27 40 -30 3 -3 34 -28 70 -55 36 -28 70 -56 76 -64
8 -10 33 10 120 97 124 125 220 226 314 332 36 40 70 78 75 84 9 9 107 126
195 232 10 12 46 59 81 105 35 46 67 86 71 87 5 2 8 10 8 17 0 8 6 18 13 22
11 7 71 92 141 198 14 22 29 45 34 50 22 28 132 214 132 223 0 6 4 12 9 14 12
4 144 255 211 403 18 39 50 115 72 170 21 55 43 109 48 120 29 64 125 391 119
405 -1 3 3 15 9 27 7 12 14 35 16 50 3 15 7 39 10 53 3 14 9 41 12 60 4 19 8
44 11 55 2 11 6 36 9 55 3 19 7 48 10 65 8 46 25 175 31 230 2 28 7 400 10
828 l4 777 -3291 0 -3292 0 5 -792z"/>
</g>
</svg>
